<?xml version="1.0" standalone="no"?>
<!DOCTYPE svg PUBLIC "-//W3C//DTD SVG 20010904//EN"
 "http://www.w3.org/TR/2001/REC-SVG-20010904/DTD/svg10.dtd">
<svg version="1.0" xmlns="http://www.w3.org/2000/svg"
 width="400.000000pt" height="400.000000pt" viewBox="0 0 400.000000 400.000000"
 preserveAspectRatio="xMidYMid meet">
<metadata>
Created by potrace 1.11, written by Peter Selinger 2001-2013
</metadata>
<g transform="translate(0.000000,400.000000) scale(0.100000,-0.100000)"
fill="#000000" stroke="none">
<path d="M321 3990 c-115 -27 -225 -112 -272 -210 -51 -106 -49 -18 -49 -1785
0 -1593 1 -1655 19 -1707 48 -140 151 -237 287 -273 51 -13 265 -15 1700 -15
1343 0 1650 3 1685 14 141 43 232 125 286 258 17 40 18 152 20 1714 3 1617 2
1673 -16 1726 -45 131 -136 222 -267 267 -58 20 -76 20 -1709 20 -907 -1
-1665 -5 -1684 -9z"/>
</g>
</svg>
